<?xml version="1.0" standalone="no"?>
<!DOCTYPE svg PUBLIC "-//W3C//DTD SVG 20010904//EN"
 "http://www.w3.org/TR/2001/REC-SVG-20010904/DTD/svg10.dtd">
<svg version="1.0" xmlns="http://www.w3.org/2000/svg"
 width="1893.000000pt" height="1893.000000pt" viewBox="0 0 1893.000000 1893.000000"
 preserveAspectRatio="xMidYMid meet">

<g transform="translate(0.000000,1893.000000) scale(0.100000,-0.100000)"
fill="#000000" stroke="none">
<path d="M0 9465 l0 -9465 9465 0 9465 0 0 9465 0 9465 -9465 0 -9465 0 0
-9465z m9468 6368 c12 -37 253 -508 376 -733 81 -147 220 -411 326 -615 103
-199 193 -371 235 -450 44 -82 234 -437 332 -620 44 -82 111 -206 148 -275 37
-69 117 -217 177 -330 61 -113 142 -263 181 -335 39 -71 82 -150 95 -175 13
-25 48 -88 77 -140 28 -52 73 -133 97 -180 25 -47 108 -202 185 -345 77 -143
184 -343 238 -445 54 -102 113 -210 130 -240 18 -30 70 -127 115 -215 46 -88
105 -199 131 -247 27 -47 91 -167 142 -265 52 -98 111 -207 131 -243 20 -36
70 -130 112 -210 42 -80 113 -212 159 -295 45 -82 116 -213 157 -290 42 -77
108 -201 148 -275 182 -337 271 -503 325 -605 92 -176 134 -253 198 -370 33
-60 70 -128 82 -150 12 -22 57 -105 100 -185 43 -80 111 -203 150 -275 77
-139 108 -196 200 -370 32 -60 69 -127 82 -147 13 -21 87 -156 164 -300 78
-145 145 -267 149 -273 4 -5 41 -73 82 -150 41 -77 130 -241 197 -365 68 -124
155 -283 194 -355 38 -71 112 -205 163 -296 52 -92 94 -170 94 -174 0 -4 47
-89 104 -188 57 -100 129 -231 161 -292 32 -60 83 -153 113 -205 54 -92 94
-166 334 -605 63 -115 128 -232 145 -260 16 -27 65 -113 108 -190 92 -165 176
-297 242 -385 l27 -35 -26 25 c-14 14 -99 106 -189 205 -89 99 -262 286 -384
415 -122 129 -246 262 -276 295 -30 33 -86 96 -126 140 -39 44 -98 115 -131
158 -33 43 -82 102 -109 130 -27 29 -105 113 -173 188 -69 74 -217 232 -330
350 -113 118 -302 318 -419 444 -320 343 -517 551 -702 740 -91 93 -256 265
-367 380 -200 209 -608 610 -817 802 -60 56 -174 164 -252 241 -139 137 -143
143 -203 263 -54 107 -172 320 -445 804 -170 302 -375 710 -772 1540 -144 300
-231 478 -449 918 -95 192 -185 381 -200 420 -29 75 -107 231 -224 447 -37 69
-126 240 -198 380 -71 140 -165 323 -208 405 -43 83 -83 165 -89 183 l-12 33
-18 -28 c-10 -15 -100 -188 -200 -383 -100 -195 -203 -393 -229 -440 -45 -81
-363 -713 -437 -870 -20 -41 -110 -228 -201 -415 -187 -386 -222 -458 -288
-605 -87 -192 -186 -393 -304 -618 -64 -122 -166 -322 -227 -445 -60 -122
-114 -229 -118 -237 -179 -338 -275 -515 -401 -735 -32 -55 -90 -163 -130
-240 -120 -231 -206 -355 -369 -530 -114 -122 -595 -621 -840 -870 -130 -132
-326 -332 -435 -445 -110 -113 -317 -324 -461 -470 -238 -242 -563 -580 -805
-835 -52 -55 -161 -167 -241 -250 -80 -82 -168 -175 -195 -206 -188 -214 -241
-273 -260 -288 -21 -17 -61 -63 -335 -386 -65 -77 -155 -183 -201 -236 -46
-53 -137 -160 -203 -239 -66 -79 -139 -164 -162 -189 l-43 -46 59 105 c32 58
98 179 146 270 48 91 106 197 128 235 22 39 59 107 83 153 57 107 266 490 359
657 40 72 112 202 161 290 48 88 148 270 222 405 74 135 161 295 194 355 33
61 75 135 93 165 18 30 62 109 97 175 36 66 101 185 145 265 44 80 113 206
153 280 40 74 117 212 170 305 93 164 216 384 295 530 33 60 108 198 250 460
93 170 339 636 394 745 66 129 97 189 221 418 39 74 121 231 182 350 61 120
134 260 163 312 61 112 155 291 215 410 24 47 60 114 80 150 20 36 67 124 105
195 37 72 114 218 170 325 150 285 268 509 389 735 130 242 181 338 343 650
69 132 133 254 143 270 9 17 42 77 73 135 30 58 108 204 172 325 65 121 163
306 218 410 55 105 141 267 192 360 51 94 127 238 170 320 43 83 97 186 120
230 23 44 105 199 182 345 77 146 165 312 195 370 31 58 92 175 138 260 45 85
119 225 163 310 45 85 128 243 184 350 57 107 150 288 206 402 56 114 105 207
108 208 3 0 11 -17 17 -37z"/>
</g>
</svg>
